<svg xmlns="http://www.w3.org/2000/svg" width="1280" height="720" viewBox="0 0 1280 720">
  <rect width="1280" height="720" fill="#2b221c"/>
  <rect x="40" y="36" width="1200" height="648" rx="18" fill="#f6ead7" stroke="#c9b496"/>
  <rect x="40" y="36" width="1200" height="56" rx="18" fill="#3d2c22"/>
  <rect x="40" y="72" width="1200" height="20" fill="#3d2c22"/>
  <text x="64" y="72" fill="#f6ead7" font-family="ui-sans-serif, system-ui, sans-serif" font-size="22" font-weight="700">상점 명령 편집</text>
  <text x="1120" y="72" fill="#d9c4a8" font-family="ui-sans-serif, system-ui, sans-serif" font-size="14">BEFORE</text>
  <rect x="64" y="112" width="1152" height="48" rx="10" fill="#f3d4cc" stroke="#c23b2e"/>
  <text x="84" y="142" fill="#8a1f16" font-family="ui-sans-serif, system-ui, sans-serif" font-size="18" font-weight="700">상점 아이템 'item_potion'을(를) 찾을 수 없습니다.</text>
  <text x="80" y="192" fill="#3a2a1c" font-family="ui-sans-serif, system-ui, sans-serif" font-size="20" font-weight="700">진열 상품</text>
  <rect x="210" y="172" width="46" height="28" rx="14" fill="#3d2c22"/>
  <text x="224" y="192" fill="#f6ead7" font-family="ui-sans-serif, system-ui, sans-serif" font-size="14">3개</text>
  <rect x="1040" y="168" width="160" height="40" rx="8" fill="#c45c2c"/>
  <text x="1068" y="194" fill="#fff8ee" font-family="ui-sans-serif, system-ui, sans-serif" font-size="16" font-weight="700">+ 상품 추가</text>
  <g font-family="ui-sans-serif, system-ui, sans-serif">
    <rect x="64" y="224" width="1136" height="88" rx="10" fill="#fff8ee" stroke="#e2c9a8"/>
    <rect x="84" y="244" width="48" height="48" rx="8" fill="#ead7c2"/>
    <text x="98" y="274" font-size="22">?</text>
    <text x="150" y="262" fill="#3a2a1c" font-size="20" font-weight="700">찾을 수 없는 상품</text>
    <text x="150" y="286" fill="#8a6a4e" font-size="14">자료집에서 삭제된 상품 · item_potion</text>
    <text x="1080" y="274" fill="#8a6a4e" font-size="18">—</text>
    <rect x="64" y="324" width="1136" height="88" rx="10" fill="#fff8ee" stroke="#e2c9a8"/>
    <rect x="84" y="344" width="48" height="48" rx="8" fill="#ead7c2"/>
    <text x="98" y="374" font-size="22">?</text>
    <text x="150" y="362" fill="#3a2a1c" font-size="20" font-weight="700">찾을 수 없는 상품</text>
    <text x="150" y="386" fill="#8a6a4e" font-size="14">자료집에서 삭제된 상품 · item_ether</text>
    <text x="1080" y="374" fill="#8a6a4e" font-size="18">—</text>
    <rect x="64" y="424" width="1136" height="88" rx="10" fill="#fff8ee" stroke="#e2c9a8"/>
    <rect x="84" y="444" width="48" height="48" rx="8" fill="#ead7c2"/>
    <text x="98" y="474" font-size="22">?</text>
    <text x="150" y="462" fill="#3a2a1c" font-size="20" font-weight="700">찾을 수 없는 상품</text>
    <text x="150" y="486" fill="#8a6a4e" font-size="14">자료집에서 삭제된 상품 · item_antidote</text>
    <text x="1080" y="474" fill="#8a6a4e" font-size="18">—</text>
  </g>
  <text x="64" y="560" fill="#6b5340" font-family="ui-sans-serif, system-ui, sans-serif" font-size="15">newCommand("shop")가 잡화 3종 ID를 자동 주입 → 프로젝트 DB에 없으면 유령 행</text>
</svg>
